<svg width="29" height="29" viewBox="0 0 29 29" fill="none" xmlns="http://www.w3.org/2000/svg">
<path d="M14.4878 2.41663C7.81775 2.41663 2.4165 7.82996 2.4165 14.5C2.4165 21.17 7.81775 26.5833 14.4878 26.5833C21.1698 26.5833 26.5832 21.17 26.5832 14.5C26.5832 7.82996 21.1698 2.41663 14.4878 2.41663ZM14.4998 24.1666C9.159 24.1666 4.83317 19.8408 4.83317 14.5C4.83317 9.15913 9.159 4.83329 14.4998 4.83329C19.8407 4.83329 24.1665 9.15913 24.1665 14.5C24.1665 19.8408 19.8407 24.1666 14.4998 24.1666Z" fill="#DE752D"/>
<path d="M15.104 8.45837H13.2915V15.7084L19.6353 19.5146L20.5415 18.0284L15.104 14.8021V8.45837Z" fill="#DE752D"/>
</svg>
