<svg width="20" height="20" viewBox="0 0 20 20" fill="none" xmlns="http://www.w3.org/2000/svg">
<g clip-path="url(#clip0_139_3491)">
<path d="M9.99986 18.2353C10.9057 18.2353 11.6469 17.4942 11.6469 16.5883H8.3528C8.3528 17.4942 9.09397 18.2353 9.99986 18.2353ZM14.941 13.2942V9.17651C14.941 6.64828 13.5987 4.53181 11.2351 3.97181V3.41181C11.2351 2.72828 10.6834 2.17651 9.99986 2.17651C9.31633 2.17651 8.76456 2.72828 8.76456 3.41181V3.97181C6.40927 4.53181 5.05868 6.64004 5.05868 9.17651V13.2942L3.41162 14.9412V15.7648H16.5881V14.9412L14.941 13.2942ZM13.294 14.1177H6.70574V9.17651C6.70574 7.13416 7.94927 5.47063 9.99986 5.47063C12.0504 5.47063 13.294 7.13416 13.294 9.17651V14.1177Z" fill="white"/>
</g>
<defs>
<clipPath id="clip0_139_3491">
<rect width="19.7647" height="19.7647" fill="white" transform="translate(0.117676 0.117676)"/>
</clipPath>
</defs>
</svg>
