<svg width="41" height="41" viewBox="0 0 41 41" fill="none" xmlns="http://www.w3.org/2000/svg">
<path d="M20.5 11.9583C19.5604 11.9583 18.7916 12.7271 18.7916 13.6667V18.7917H13.6666C12.727 18.7917 11.9583 19.5604 11.9583 20.5C11.9583 21.4396 12.727 22.2083 13.6666 22.2083H18.7916V27.3333C18.7916 28.2729 19.5604 29.0417 20.5 29.0417C21.4395 29.0417 22.2083 28.2729 22.2083 27.3333V22.2083H27.3333C28.2729 22.2083 29.0416 21.4396 29.0416 20.5C29.0416 19.5604 28.2729 18.7917 27.3333 18.7917H22.2083V13.6667C22.2083 12.7271 21.4395 11.9583 20.5 11.9583ZM20.5 3.41666C11.07 3.41666 3.41663 11.07 3.41663 20.5C3.41663 29.93 11.07 37.5833 20.5 37.5833C29.93 37.5833 37.5833 29.93 37.5833 20.5C37.5833 11.07 29.93 3.41666 20.5 3.41666ZM20.5 34.1667C12.9662 34.1667 6.83329 28.0337 6.83329 20.5C6.83329 12.9662 12.9662 6.83332 20.5 6.83332C28.0337 6.83332 34.1666 12.9662 34.1666 20.5C34.1666 28.0337 28.0337 34.1667 20.5 34.1667Z" fill="#BE5A40"/>
</svg>
