<svg width="14" height="14" viewBox="0 0 14 14" fill="none" xmlns="http://www.w3.org/2000/svg">
<path d="M2.12959 2.69393L2.12957 2.69396C1.03377 3.93398 0.452126 5.54534 0.503087 7.19936L2.12959 2.69393ZM2.12959 2.69393C3.22328 1.45613 4.7474 0.681229 6.3918 0.52652L6.39892 0.525883C7.67009 0.412285 8.94665 0.674261 10.0703 1.27935L10.0704 1.27938C11.1941 1.88436 12.1156 2.80587 12.7206 3.92963L12.7206 3.92968C13.3256 5.05313 13.5876 6.32947 13.4742 7.60042C13.3212 9.24779 12.5458 10.7748 11.306 11.8704L11.306 11.8704M2.12959 2.69393L11.306 11.8704M11.306 11.8704C10.0661 12.9662 8.45478 13.5479 6.80062 13.4969M11.306 11.8704L2.40413 11.5959M6.80062 13.4969C5.14658 13.4459 3.57432 12.7661 2.40413 11.5959M6.80062 13.4969L6.7852 13.9967L6.80062 13.4969ZM2.40413 11.5959C1.23393 10.4256 0.554167 8.8534 0.503088 7.19939L2.40413 11.5959ZM6.95994 9.89092L6.95995 9.89094L6.96297 9.88795L10.9584 5.93403L10.9705 5.93444L11.1252 5.77396C11.4095 5.47881 11.5183 5.05604 11.4113 4.66024C11.3044 4.26437 10.9976 3.95373 10.6032 3.84186L10.603 3.84182C10.2087 3.73012 9.78453 3.83345 9.4858 4.11427L9.48569 4.11416L9.47688 4.12287L6.12948 7.42955L4.5072 5.87304C4.50716 5.87299 4.50711 5.87295 4.50707 5.87291C4.20623 5.58414 3.77407 5.47757 3.37328 5.59381C2.9726 5.70991 2.66414 6.03093 2.5643 6.43618L2.56426 6.43635C2.46465 6.84128 2.58845 7.26877 2.88929 7.55783L2.89039 7.55889L5.33433 9.89279C5.55181 10.1034 5.84284 10.2216 6.14617 10.2216C6.45039 10.2216 6.74226 10.1027 6.95994 9.89092Z" fill="#1A9E50" stroke="#1A9E50"/>
</svg>
