<svg width="41" height="41" viewBox="0 0 41 41" fill="none" xmlns="http://www.w3.org/2000/svg">
<path d="M24.9246 13.6666L20.5 18.0912L16.0754 13.6666L13.6667 16.0754L18.0913 20.5L13.6667 24.9245L16.0754 27.3333L20.5 22.9087L24.9246 27.3333L27.3333 24.9245L22.9088 20.5L27.3333 16.0754L24.9246 13.6666ZM20.5 3.41663C11.0529 3.41663 3.41667 11.0529 3.41667 20.5C3.41667 29.947 11.0529 37.5833 20.5 37.5833C29.9471 37.5833 37.5833 29.947 37.5833 20.5C37.5833 11.0529 29.9471 3.41663 20.5 3.41663ZM20.5 34.1666C12.9663 34.1666 6.83333 28.0337 6.83333 20.5C6.83333 12.9662 12.9663 6.83329 20.5 6.83329C28.0338 6.83329 34.1667 12.9662 34.1667 20.5C34.1667 28.0337 28.0338 34.1666 20.5 34.1666Z" fill="#AAAAAA"/>
</svg>
