<svg width="18" height="18" viewBox="0 0 18 18" fill="none" xmlns="http://www.w3.org/2000/svg">
<path d="M8.16995 0.035792C5.88849 0.247328 3.77337 1.32101 2.2563 3.03797C0.739042 4.75492 -0.0662966 6.98601 0.00427525 9.27616C0.0749888 11.5663 1.0162 13.7432 2.63645 15.3636C4.25669 16.9838 6.43367 17.925 8.72385 17.9957C11.0141 18.0663 13.2452 17.261 14.962 15.7437C16.679 14.2264 17.7527 12.1115 17.9642 9.83005C18.1215 8.07035 17.7588 6.30314 16.9212 4.74765C16.0837 3.19201 14.808 1.91636 13.2524 1.07887C11.6969 0.241231 9.92969 -0.121426 8.16999 0.0358304L8.16995 0.035792ZM13.8345 6.9774L8.50023 12.2561C8.34012 12.4119 8.12559 12.4992 7.90224 12.4992C7.6789 12.4992 7.46438 12.4119 7.30426 12.2561L4.16021 9.25365C3.93896 9.04107 3.84791 8.72666 3.92116 8.42887C3.99457 8.13092 4.22136 7.89488 4.51601 7.80949C4.81067 7.72398 5.1285 7.80232 5.34975 8.01475L7.88731 10.4494L12.6364 5.75817C12.8558 5.55187 13.1675 5.47592 13.4572 5.558C13.7471 5.64022 13.9726 5.8685 14.0511 6.15927C14.1297 6.45005 14.0499 6.7607 13.8409 6.97762L13.8345 6.9774Z" fill="#1A9E50"/>
</svg>
