<svg width="20" height="22" viewBox="0 0 20 22" fill="none" xmlns="http://www.w3.org/2000/svg">
<path d="M6.81639 0.994385H2.35002C1.72747 0.996624 1.13091 1.24579 0.690644 1.68738C0.250553 2.12915 0.00223802 2.72768 0 3.3524V7.83417V7.83398C0.00223207 8.45865 0.250549 9.05724 0.690644 9.49901C1.13092 9.94059 1.72742 10.1898 2.35002 10.192H6.81658H6.8164C7.43895 10.1898 8.0355 9.9406 8.47577 9.49901C8.91586 9.05723 9.16418 8.4587 9.16642 7.83398V3.35241C9.16418 2.72774 8.91587 2.12915 8.47577 1.68738C8.0355 1.2458 7.439 0.996635 6.8164 0.994389L6.81639 0.994385ZM7.4998 7.83403C7.4998 8.016 7.42781 8.19032 7.29966 8.31889C7.1715 8.44747 6.99777 8.51972 6.81644 8.51972H2.35006C2.1687 8.51972 1.99498 8.44749 1.86684 8.31889C1.7387 8.1903 1.6667 8.01598 1.6667 7.83403V3.35245C1.6667 3.17048 1.73868 2.99616 1.86684 2.86758C1.995 2.73901 2.16872 2.66676 2.35006 2.66676H6.81663H6.81644C6.9978 2.66676 7.17152 2.73899 7.29966 2.86758C7.4278 2.99618 7.4998 3.17049 7.4998 3.35245L7.4998 7.83403Z" fill="white"/>
<path d="M17.65 0.994385H13.1836C12.5611 0.996624 11.9645 1.24579 11.5243 1.68738C11.0842 2.12915 10.8359 2.72768 10.8336 3.3524V7.83417V7.83399C10.8359 8.45866 11.0842 9.05724 11.5243 9.49901C11.9645 9.9406 12.561 10.1898 13.1836 10.192H17.6502H17.65C18.2726 10.1898 18.8691 9.9406 19.3094 9.49901C19.7495 9.05723 19.9978 8.4587 20 7.83399V3.35241C19.9978 2.72774 19.7495 2.12915 19.3094 1.68738C18.8691 1.2458 18.2726 0.996635 17.65 0.994389L17.65 0.994385ZM18.3334 7.83403C18.3334 8.016 18.2614 8.19032 18.1333 8.3189C18.0051 8.44747 17.8314 8.51972 17.6501 8.51972H13.1837C13.0023 8.51972 12.8286 8.44749 12.7005 8.3189C12.5723 8.1903 12.5003 8.01598 12.5003 7.83403V3.35245C12.5003 3.17048 12.5723 2.99616 12.7005 2.86758C12.8286 2.73901 13.0023 2.66676 13.1837 2.66676H17.6503H17.6501C17.8314 2.66676 18.0052 2.73899 18.1333 2.86758C18.2614 2.99618 18.3334 3.1705 18.3334 3.35245L18.3334 7.83403Z" fill="white"/>
<path d="M6.81639 11.8645H2.35002C1.72747 11.8667 1.13091 12.1159 0.690644 12.5575C0.250553 12.9993 0.00223802 13.5978 0 14.2225V18.7043V18.7041C0.00223207 19.3288 0.250549 19.9274 0.690644 20.3691C1.13092 20.8107 1.72742 21.0599 2.35002 21.0621H6.81658H6.8164C7.43895 21.0599 8.0355 20.8107 8.47577 20.3691C8.91586 19.9273 9.16418 19.3288 9.16642 18.7041V14.2225C9.16418 13.5979 8.91587 12.9993 8.47577 12.5575C8.0355 12.1159 7.439 11.8668 6.8164 11.8645L6.81639 11.8645ZM7.4998 18.7041C7.4998 18.8861 7.42781 19.0604 7.29966 19.189C7.1715 19.3176 6.99777 19.3898 6.81644 19.3898H2.35006C2.1687 19.3898 1.99498 19.3176 1.86684 19.189C1.7387 19.0604 1.6667 18.8861 1.6667 18.7041V14.2226C1.6667 14.0406 1.73868 13.8663 1.86684 13.7377C1.995 13.6091 2.16872 13.5369 2.35006 13.5369H6.81663H6.81644C6.9978 13.5369 7.17152 13.6091 7.29966 13.7377C7.4278 13.8663 7.4998 14.0406 7.4998 14.2226L7.4998 18.7041Z" fill="white"/>
<path d="M17.65 11.864H13.1836C12.5611 11.8663 11.9645 12.1154 11.5243 12.557C11.0842 12.9988 10.8359 13.5973 10.8336 14.222V18.7038V18.7036C10.8359 19.3283 11.0842 19.9269 11.5243 20.3686C11.9645 20.8102 12.561 21.0594 13.1836 21.0616H17.6502H17.65C18.2726 21.0594 18.8691 20.8102 19.3094 20.3686C19.7495 19.9269 19.9978 19.3283 20 18.7036V14.222C19.9978 13.5974 19.7495 12.9988 19.3094 12.557C18.8691 12.1154 18.2726 11.8663 17.65 11.864L17.65 11.864ZM18.3334 18.7036C18.3334 18.8856 18.2614 19.0599 18.1333 19.1885C18.0051 19.3171 17.8314 19.3893 17.6501 19.3893H13.1837C13.0023 19.3893 12.8286 19.3171 12.7005 19.1885C12.5723 19.0599 12.5003 18.8856 12.5003 18.7036V14.2221C12.5003 14.0401 12.5723 13.8658 12.7005 13.7372C12.8286 13.6086 13.0023 13.5364 13.1837 13.5364H17.6503H17.6501C17.8314 13.5364 18.0052 13.6086 18.1333 13.7372C18.2614 13.8658 18.3334 14.0401 18.3334 14.2221L18.3334 18.7036Z" fill="white"/>
</svg>
