<svg width="20" height="20" viewBox="0 0 20 20" fill="none" xmlns="http://www.w3.org/2000/svg">
<path fill-rule="evenodd" clip-rule="evenodd" d="M2.22227 17.778H17.7777V2.22252H2.22227V17.778ZM17.7777 0C19.0056 0 20 0.994436 20 2.22227V17.7777C20 19.0056 19.0056 20 17.7777 20H2.22227C0.994436 20 0 19.0056 0 17.7777V2.22227C0 0.994436 0.994436 0 2.22227 0L17.7777 0ZM9.99982 16.6669C10.6142 16.6669 11.1109 16.1703 11.1109 15.5557V7.77781C11.1109 7.16451 10.6142 6.66676 9.99982 6.66676C9.38542 6.66676 8.88878 7.16455 8.88878 7.77781V15.5557C8.88878 16.1703 9.38542 16.6669 9.99982 16.6669ZM14.4445 16.6669C15.0589 16.6669 15.5555 16.1703 15.5555 15.5557V5.55565C15.5555 4.94236 15.0589 4.4446 14.4445 4.4446C13.83 4.4446 13.3333 4.94239 13.3333 5.55565V15.5557C13.3333 16.1703 13.83 16.6669 14.4445 16.6669ZM5.5555 16.6669C6.17004 16.6669 6.66669 16.1703 6.66669 15.5557V10.0003C6.66669 9.38703 6.17004 8.88928 5.5555 8.88928C4.94111 8.88928 4.44446 9.38707 4.44446 10.0003V15.5557C4.44446 16.1703 4.94111 16.6669 5.5555 16.6669Z" fill="white"/>
</svg>
