<svg width="20" height="20" viewBox="0 0 20 20" fill="none" xmlns="http://www.w3.org/2000/svg">
<path d="M6.60092 17.4074C7.12171 17.4074 7.5439 17.8404 7.5439 18.3745C7.5439 18.9086 7.12171 19.3416 6.60092 19.3416H3.77195C1.68876 19.3416 0 17.6097 0 15.4732V3.86831C0 1.7319 1.68876 0 3.77195 0H6.60092C7.12171 0 7.5439 0.432975 7.5439 0.967078C7.5439 1.50118 7.12171 1.93416 6.60092 1.93416H3.77195C2.73036 1.93416 1.88598 2.80011 1.88598 3.86831V15.4732C1.88598 16.5414 2.73036 17.4074 3.77195 17.4074H6.60092ZM10.22 4.87847C10.22 3.81027 11.0644 2.94432 12.106 2.94432C12.5254 2.94432 12.9328 3.08768 13.2639 3.35174L19.2718 8.14396C20.094 8.79978 20.2421 10.015 19.6026 10.8582C19.5065 10.9849 19.3954 11.0989 19.2718 11.1974L13.2639 15.9896C12.4417 16.6455 11.2568 16.4936 10.6173 15.6504C10.3598 15.3109 10.22 14.893 10.22 14.4629V12.5719H6.44807C4.88567 12.5719 3.6191 11.273 3.6191 9.67069C3.6191 8.06839 4.88567 6.76946 6.44807 6.76946H10.22V4.87847ZM12.106 14.4629L18.1139 9.67069L12.106 4.87847V7.73654C12.106 8.27064 11.6838 8.70362 11.163 8.70362H6.44807C5.92727 8.70362 5.50508 9.13659 5.50508 9.67069C5.50508 10.2048 5.92727 10.6378 6.44807 10.6378H11.163C11.6838 10.6378 12.106 11.0707 12.106 11.6048V14.4629Z" fill="white"/>
</svg>
