<svg width="20" height="20" viewBox="0 0 20 20" fill="none" xmlns="http://www.w3.org/2000/svg">
<path d="M10 4.90757V2.87053C10 1.75016 9.1 0.833496 8 0.833496H2C0.9 0.833496 0 1.75016 0 2.87053V17.1298C0 18.2502 0.9 19.1668 2 19.1668H18C19.1 19.1668 20 18.2502 20 17.1298V6.94461C20 5.82424 19.1 4.90757 18 4.90757H10ZM4 17.1298H2V15.0928H4V17.1298ZM4 13.0557H2V11.0187H4V13.0557ZM4 8.98164H2V6.94461H4V8.98164ZM4 4.90757H2V2.87053H4V4.90757ZM8 17.1298H6V15.0928H8V17.1298ZM8 13.0557H6V11.0187H8V13.0557ZM8 8.98164H6V6.94461H8V8.98164ZM8 4.90757H6V2.87053H8V4.90757ZM17 17.1298H10V15.0928H12V13.0557H10V11.0187H12V8.98164H10V6.94461H17C17.55 6.94461 18 7.40294 18 7.96313V16.1113C18 16.6715 17.55 17.1298 17 17.1298ZM16 8.98164H14V11.0187H16V8.98164ZM16 13.0557H14V15.0928H16V13.0557Z" fill="white"/>
</svg>
