<svg width="20" height="20" viewBox="0 0 20 20" fill="none" xmlns="http://www.w3.org/2000/svg">
<path d="M19.0475 1.71415H14.9998V1.19041C14.9998 0.523746 14.476 0 13.8094 0C13.1427 0 12.619 0.523746 12.619 1.19041L12.6188 1.71415H7.38094V1.19041C7.38094 0.523746 6.85719 0 6.19053 0C5.52387 0 5.00012 0.523746 5.00012 1.19041L4.99996 1.71415H0.952284C0.428538 1.71415 0 2.1904 0 2.69039V18.0711C0 18.6186 0.428538 19.0947 0.952284 19.0947H19.0476C19.5713 19.0947 19.9998 18.6184 19.9998 18.0947L20 2.69023C20 2.19023 19.5715 1.71415 19.0477 1.71415H19.0475ZM18.095 17.1903H1.90473V3.61914H4.99991V4.21434C4.99991 4.881 5.52366 5.40475 6.19032 5.40475C6.85698 5.40475 7.38072 4.881 7.38072 4.21434L7.38089 3.61914H12.6188V4.21434C12.6188 4.881 13.1425 5.40475 13.8092 5.40475C14.4758 5.40475 14.9996 4.881 14.9996 4.21434V3.61914H18.0948L18.095 17.1903Z" fill="white"/>
<path d="M15.0476 8.14258H9.00014C8.47639 8.14258 8.04785 8.57112 8.04785 9.09486C8.04785 9.61861 8.47639 10.0471 9.00014 10.0471H15.0713C15.5951 10.0471 16.0236 9.61861 16.0236 9.09486C16.0236 8.57112 15.5951 8.14258 15.0475 8.14258H15.0476Z" fill="white"/>
<path d="M15.0476 12.4282H9.00014C8.47639 12.4282 8.04785 12.8568 8.04785 13.3805C8.04785 13.9043 8.47639 14.3328 9.00014 14.3328H15.0713C15.5951 14.3328 16.0236 13.9043 16.0236 13.3805C16.0236 12.8568 15.5951 12.4282 15.0475 12.4282H15.0476Z" fill="white"/>
<path d="M6.23805 8.14258H4.92848C4.40473 8.14258 3.9762 8.57112 3.9762 9.09486C3.9762 9.61861 4.40473 10.0471 4.92848 10.0471H6.23805C6.7618 10.0471 7.19034 9.61861 7.19034 9.09486C7.19034 8.57112 6.78556 8.14258 6.23805 8.14258Z" fill="white"/>
<path d="M6.23805 12.4282H4.92848C4.40473 12.4282 3.9762 12.8568 3.9762 13.3805C3.9762 13.9043 4.40473 14.3328 4.92848 14.3328H6.23805C6.7618 14.3328 7.19034 13.9043 7.19034 13.3805C7.19034 12.8568 6.78556 12.4282 6.23805 12.4282Z" fill="white"/>
</svg>
