<svg width="20" height="19" viewBox="0 0 20 19" fill="none" xmlns="http://www.w3.org/2000/svg">
<path d="M19.3333 1.31428H18.6667V0.657134C18.6667 0.422293 18.5396 0.205357 18.3333 0.0880102C18.1271 -0.0293367 17.8729 -0.0293367 17.6667 0.0880102C17.4604 0.205357 17.3333 0.422301 17.3333 0.657134V1.31428H14.6667V0.657134C14.6667 0.422293 14.5396 0.205357 14.3333 0.0880102C14.1271 -0.0293367 13.8729 -0.0293367 13.6667 0.0880102C13.4604 0.205357 13.3333 0.422301 13.3333 0.657134V1.31428H10.6667V0.657134C10.6667 0.422293 10.5396 0.205357 10.3333 0.0880102C10.1271 -0.0293367 9.87291 -0.0293367 9.66667 0.0880102C9.46042 0.205357 9.33333 0.422301 9.33333 0.657134V1.31428H6.66667V0.657134C6.66667 0.422293 6.53959 0.205357 6.33333 0.0880102C6.12708 -0.0293367 5.87291 -0.0293367 5.66667 0.0880102C5.46042 0.205357 5.33333 0.422301 5.33333 0.657134V1.31428H2.66667V0.657134C2.66667 0.422293 2.53958 0.205357 2.33333 0.0880102C2.12708 -0.0293367 1.87291 -0.0293367 1.66667 0.0880102C1.46042 0.205357 1.33333 0.422301 1.33333 0.657134V1.31428H0.666667C0.489882 1.31428 0.320236 1.38351 0.195238 1.50673C0.07024 1.62994 0 1.79716 0 1.97142V17.7429C0 17.9171 0.07024 18.0843 0.195238 18.2076C0.320236 18.3308 0.489882 18.4 0.666667 18.4H19.3333C19.5101 18.4 19.6798 18.3308 19.8048 18.2076C19.9298 18.0843 20 17.9171 20 17.7429V1.97142C20 1.79716 19.9298 1.62994 19.8048 1.50673C19.6798 1.38351 19.5101 1.31428 19.3333 1.31428ZM1.33333 2.62856H18.6667V3.94285H1.33333V2.62856ZM18.6667 17.0857H1.33333V5.25714H18.6667V17.0857ZM3.33333 9.85714H6C6.17679 9.85714 6.34643 9.7879 6.47143 9.66469C6.59643 9.54148 6.66667 9.37425 6.66667 9.2V7.22857C6.66667 7.05431 6.59643 6.88708 6.47143 6.76387C6.34643 6.64066 6.17679 6.57142 6 6.57142H3.33333C3.15655 6.57142 2.9869 6.64066 2.8619 6.76387C2.73691 6.88708 2.66667 7.05431 2.66667 7.22857V9.2C2.66667 9.37425 2.73691 9.54148 2.8619 9.66469C2.9869 9.7879 3.15655 9.85714 3.33333 9.85714ZM4 7.88571H5.33333V8.54285H4V7.88571ZM8.66667 9.85714H11.3333C11.5101 9.85714 11.6798 9.7879 11.8048 9.66469C11.9298 9.54148 12 9.37425 12 9.2V7.22857C12 7.05431 11.9298 6.88708 11.8048 6.76387C11.6798 6.64066 11.5101 6.57142 11.3333 6.57142H8.66667C8.48988 6.57142 8.32024 6.64066 8.19524 6.76387C8.07024 6.88708 8 7.05431 8 7.22857V9.2C8 9.37425 8.07024 9.54148 8.19524 9.66469C8.32024 9.7879 8.48988 9.85714 8.66667 9.85714ZM9.33333 7.88571H10.6667V8.54285H9.33333V7.88571ZM14 9.85714H16.6667C16.8435 9.85714 17.0131 9.7879 17.1381 9.66469C17.2631 9.54148 17.3333 9.37425 17.3333 9.2V7.22857C17.3333 7.05431 17.2631 6.88708 17.1381 6.76387C17.0131 6.64066 16.8435 6.57142 16.6667 6.57142H14C13.8232 6.57142 13.6536 6.64066 13.5286 6.76387C13.4036 6.88708 13.3333 7.05431 13.3333 7.22857V9.2C13.3333 9.37425 13.4036 9.54148 13.5286 9.66469C13.6536 9.7879 13.8232 9.85714 14 9.85714ZM14.6667 7.88571H16V8.54285H14.6667V7.88571ZM2.66667 11.8286C2.66667 11.6543 2.73691 11.4871 2.8619 11.3639C2.9869 11.2407 3.15655 11.1714 3.33333 11.1714H6C6.23824 11.1714 6.45832 11.2967 6.57737 11.5C6.69642 11.7033 6.69642 11.9538 6.57737 12.1571C6.45832 12.3604 6.23824 12.4857 6 12.4857H3.33333C3.15655 12.4857 2.9869 12.4165 2.8619 12.2933C2.73691 12.17 2.66667 12.0028 2.66667 11.8286ZM8 11.8286C8 11.6543 8.07024 11.4871 8.19524 11.3639C8.32024 11.2407 8.48988 11.1714 8.66667 11.1714H11.3333C11.5716 11.1714 11.7917 11.2967 11.9107 11.5C12.0298 11.7033 12.0298 11.9538 11.9107 12.1571C11.7917 12.3604 11.5716 12.4857 11.3333 12.4857H8.66667C8.48988 12.4857 8.32024 12.4165 8.19524 12.2933C8.07024 12.17 8 12.0028 8 11.8286ZM13.3333 11.8286C13.3333 11.6543 13.4036 11.4871 13.5286 11.3639C13.6536 11.2407 13.8232 11.1714 14 11.1714H16.6667C16.9049 11.1714 17.125 11.2967 17.244 11.5C17.3631 11.7033 17.3631 11.9538 17.244 12.1571C17.125 12.3604 16.9049 12.4857 16.6667 12.4857H14C13.8232 12.4857 13.6536 12.4165 13.5286 12.2933C13.4036 12.17 13.3333 12.0028 13.3333 11.8286ZM2.66667 13.8C2.66667 13.6257 2.73691 13.4585 2.8619 13.3353C2.9869 13.2121 3.15655 13.1429 3.33333 13.1429H6C6.23824 13.1429 6.45832 13.2681 6.57737 13.4714C6.69642 13.6747 6.69642 13.9253 6.57737 14.1286C6.45832 14.3319 6.23824 14.4571 6 14.4571H3.33333C3.15655 14.4571 2.9869 14.3879 2.8619 14.2647C2.73691 14.1415 2.66667 13.9743 2.66667 13.8Z" fill="white"/>
</svg>
